<svg width="40" height="28" viewBox="0 0 40 28" fill="none" xmlns="http://www.w3.org/2000/svg">
<path d="M0 28V16C0 15.1 0.183333 14.2833 0.55 13.55C0.916667 12.8167 1.4 12.1667 2 11.6V6C2 4.33333 2.58333 2.91667 3.75 1.75C4.91667 0.583333 6.33333 0 8 0H16C16.7667 0 17.4833 0.141667 18.15 0.425C18.8167 0.708333 19.4333 1.1 20 1.6C20.5667 1.1 21.1833 0.708333 21.85 0.425C22.5167 0.141667 23.2333 0 24 0H32C33.6667 0 35.0833 0.583333 36.25 1.75C37.4167 2.91667 38 4.33333 38 6V11.6C38.6 12.1667 39.0833 12.8167 39.45 13.55C39.8167 14.2833 40 15.1 40 16V28H36V24H4V28H0ZM22 10H34V6C34 5.43333 33.8083 4.95833 33.425 4.575C33.0417 4.19167 32.5667 4 32 4H24C23.4333 4 22.9583 4.19167 22.575 4.575C22.1917 4.95833 22 5.43333 22 6V10ZM6 10H18V6C18 5.43333 17.8083 4.95833 17.425 4.575C17.0417 4.19167 16.5667 4 16 4H8C7.43333 4 6.95833 4.19167 6.575 4.575C6.19167 4.95833 6 5.43333 6 6V10ZM4 20H36V16C36 15.4333 35.8083 14.9583 35.425 14.575C35.0417 14.1917 34.5667 14 34 14H6C5.43333 14 4.95833 14.1917 4.575 14.575C4.19167 14.9583 4 15.4333 4 16V20Z" fill="#7E624A"/>
</svg>
