<svg width="40" height="40" viewBox="0 0 40 40" fill="none" xmlns="http://www.w3.org/2000/svg">
<path d="M20 40C17.5667 39.7 15.15 39.0417 12.75 38.025C10.35 37.0083 8.20833 35.55 6.325 33.65C4.44167 31.75 2.91667 29.35 1.75 26.45C0.583333 23.55 0 20.0667 0 16V14H2C3.7 14 5.45 14.2167 7.25 14.65C9.05 15.0833 10.7333 15.7333 12.3 16.6C12.7 13.7333 13.6083 10.7917 15.025 7.775C16.4417 4.75833 18.1 2.16667 20 0C21.9 2.16667 23.5583 4.75833 24.975 7.775C26.3917 10.7917 27.3 13.7333 27.7 16.6C29.2667 15.7333 30.95 15.0833 32.75 14.65C34.55 14.2167 36.3 14 38 14H40V16C40 20.0667 39.4167 23.55 38.25 26.45C37.0833 29.35 35.5583 31.75 33.675 33.65C31.7917 35.55 29.6583 37.0083 27.275 38.025C24.8917 39.0417 22.4667 39.7 20 40ZM19.9 35.9C19.5333 30.3667 17.8917 26.1833 14.975 23.35C12.0583 20.5167 8.43333 18.7667 4.1 18.1C4.46667 23.8 6.15833 28.05 9.175 30.85C12.1917 33.65 15.7667 35.3333 19.9 35.9ZM20 23.2C20.5 22.4667 21.1083 21.7083 21.825 20.925C22.5417 20.1417 23.2333 19.4667 23.9 18.9C23.8333 17 23.4583 15.0167 22.775 12.95C22.0917 10.8833 21.1667 8.86667 20 6.9C18.8333 8.86667 17.9083 10.8833 17.225 12.95C16.5417 15.0167 16.1667 17 16.1 18.9C16.7667 19.4667 17.4667 20.1417 18.2 20.925C18.9333 21.7083 19.5333 22.4667 20 23.2ZM23.9 35C25.1333 34.6 26.4167 34.0167 27.75 33.25C29.0833 32.4833 30.325 31.4417 31.475 30.125C32.625 28.8083 33.6083 27.1667 34.425 25.2C35.2417 23.2333 35.7333 20.8667 35.9 18.1C32.7667 18.5667 30.0167 19.6083 27.65 21.225C25.2833 22.8417 23.4667 24.9 22.2 27.4C22.6 28.4667 22.9417 29.6333 23.225 30.9C23.5083 32.1667 23.7333 33.5333 23.9 35Z" fill="#7E624A"/>
</svg>
