<svg width="40" height="33" viewBox="0 0 40 33" fill="none" xmlns="http://www.w3.org/2000/svg">
<path d="M7.27273 33C6.75758 33 6.32576 32.8243 5.97727 32.4729C5.62879 32.1215 5.45455 31.6861 5.45455 31.1667V29.3333C3.93939 29.3333 2.65152 28.7986 1.59091 27.7292C0.530303 26.6597 0 25.3611 0 23.8333V14.6667C0 13.1389 0.530303 11.8403 1.59091 10.7708C2.65152 9.70139 3.93939 9.16667 5.45455 9.16667V5.5C5.45455 3.97222 5.98485 2.67361 7.04545 1.60417C8.10606 0.534722 9.39394 0 10.9091 0H29.0909C30.6061 0 31.8939 0.534722 32.9545 1.60417C34.0152 2.67361 34.5455 3.97222 34.5455 5.5V9.16667C36.0606 9.16667 37.3485 9.70139 38.4091 10.7708C39.4697 11.8403 40 13.1389 40 14.6667V23.8333C40 25.3611 39.4697 26.6597 38.4091 27.7292C37.3485 28.7986 36.0606 29.3333 34.5455 29.3333V31.1667C34.5455 31.6861 34.3712 32.1215 34.0227 32.4729C33.6742 32.8243 33.2424 33 32.7273 33C32.2121 33 31.7803 32.8243 31.4318 32.4729C31.0833 32.1215 30.9091 31.6861 30.9091 31.1667V29.3333H9.09091V31.1667C9.09091 31.6861 8.91667 32.1215 8.56818 32.4729C8.2197 32.8243 7.78788 33 7.27273 33ZM5.45455 25.6667H34.5455C35.0606 25.6667 35.4924 25.491 35.8409 25.1396C36.1894 24.7882 36.3636 24.3528 36.3636 23.8333V14.6667C36.3636 14.1472 36.1894 13.7118 35.8409 13.3604C35.4924 13.009 35.0606 12.8333 34.5455 12.8333C34.0303 12.8333 33.5985 13.009 33.25 13.3604C32.9015 13.7118 32.7273 14.1472 32.7273 14.6667V22H7.27273V14.6667C7.27273 14.1472 7.09848 13.7118 6.75 13.3604C6.40152 13.009 5.9697 12.8333 5.45455 12.8333C4.93939 12.8333 4.50758 13.009 4.15909 13.3604C3.81061 13.7118 3.63636 14.1472 3.63636 14.6667V23.8333C3.63636 24.3528 3.81061 24.7882 4.15909 25.1396C4.50758 25.491 4.93939 25.6667 5.45455 25.6667ZM10.9091 18.3333H29.0909V14.6667C29.0909 13.8417 29.2576 13.0931 29.5909 12.4208C29.9242 11.7486 30.3636 11.1528 30.9091 10.6333V5.5C30.9091 4.98056 30.7348 4.54514 30.3864 4.19375C30.0379 3.84236 29.6061 3.66667 29.0909 3.66667H10.9091C10.3939 3.66667 9.96212 3.84236 9.61364 4.19375C9.26515 4.54514 9.09091 4.98056 9.09091 5.5V10.6333C9.63636 11.1528 10.0758 11.7486 10.4091 12.4208C10.7424 13.0931 10.9091 13.8417 10.9091 14.6667V18.3333Z" fill="#7E624A"/>
</svg>
